<svg width="200" height="200" viewBox="0 0 200 200" fill="none" xmlns="http://www.w3.org/2000/svg">
<path d="M89.4267 169.427C86.9263 171.926 83.5355 173.33 80 173.33C76.4645 173.33 73.0737 171.926 70.5733 169.427L10.5733 109.427C8.07372 106.926 6.66951 103.535 6.66951 100C6.66951 96.4644 8.07372 93.0737 10.5733 90.5733L70.5733 30.5733C73.088 28.1445 76.4561 26.8006 79.952 26.831C83.448 26.8614 86.7921 28.2636 89.2642 30.7357C91.7364 33.2078 93.1386 36.552 93.169 40.048C93.1994 43.5439 91.8554 46.9119 89.4267 49.4266L53.3333 86.6666L180 86.6666C183.536 86.6666 186.928 88.0714 189.428 90.5719C191.929 93.0724 193.333 96.4637 193.333 100C193.333 103.536 191.929 106.928 189.428 109.428C186.928 111.929 183.536 113.333 180 113.333L53.3333 113.333L89.4267 150.573C91.9263 153.074 93.3305 156.464 93.3305 160C93.3305 163.535 91.9263 166.926 89.4267 169.427Z" fill="black"/>
</svg>
